<svg width="3968" height="1116" viewBox="0 0 3968 1116" fill="none" xmlns="http://www.w3.org/2000/svg">
<rect width="3968" height="1116" fill="#9E9E9E"/>
<g clip-path="url(#clip0_0_1)">
<rect width="3968" height="1116" fill="#004AAD"/>
<path d="M664.623 209.889L677.088 211.654L710.327 225.778L751.876 239.901L793.425 250.494L845.36 259.321L880.677 262.852H951.31L990.781 259.321L1042.72 250.494L1059.34 246.963H1069.72L1075.96 319.346V379.37L1069.72 444.691L1059.34 497.654L1044.79 548.852L1028.17 594.753L1003.25 647.716L970.007 704.21L943 741.284L926.38 760.704L901.451 788.951L880.677 808.37L866.135 822.494L845.36 840.148L828.741 852.506L803.812 870.161L766.418 893.111L731.101 910.765L697.862 924.889L675.011 933.716L656.314 931.951L600.223 909L560.752 887.815L527.513 866.63L500.506 847.21L469.344 822.494L446.493 801.309L427.796 781.889L398.712 748.346L367.55 705.975L338.466 658.309L313.537 607.111L292.762 554.148L278.22 504.716L267.833 451.753L261.601 402.321L259.523 370.543V322.877L265.756 255.79L267.833 246.963L286.53 248.728L332.234 257.556L382.092 262.852H450.647L492.196 259.321L550.364 248.728L583.603 239.901L625.152 225.778L664.623 209.889Z" fill="#004AAD"/>
<path d="M664.623 178.111L675.011 181.642L708.25 195.765L741.489 208.123L774.728 218.716L812.122 227.543L859.903 234.605L876.522 236.37H940.923L984.549 232.839L1038.56 224.012L1092.58 211.654L1096.73 222.247L1107.12 299.926V305.222H1115.43L1117.5 298.16H1123.74L1127.89 305.222L1136.2 303.457L1146.59 294.63L1148.67 305.222H1152.82L1161.13 340.531L1165.29 389.963L1167.36 391.728V409.383L1161.13 460.58L1152.82 504.716L1136.2 566.506L1119.58 610.642L1105.04 645.951L1086.34 683.025L1061.41 727.161L1036.48 764.235L1001.17 808.37L980.394 831.321L957.542 854.272L932.613 877.222L899.374 905.469L876.522 921.358L851.593 939.012L814.199 960.198L776.805 979.617L726.947 1000.8L672.933 1018.46L656.314 1016.69V1052H654.236V1014.93L633.462 1009.63L581.526 990.21L535.822 969.025L504.661 951.37L475.577 933.716L448.57 914.296L427.796 898.407L380.015 857.802L361.318 838.383L332.234 806.605L311.459 780.123L288.607 748.346L267.833 716.568L257.446 698.914L259.523 693.617L265.756 702.444L269.911 704.21V707.741L280.298 709.506L284.453 716.568L290.685 720.099L296.917 709.506L311.459 707.741L313.537 698.914H319.769V702.444L326.001 704.21L336.389 714.802V718.333H340.543L361.318 744.815L384.17 774.827L402.867 794.247L425.718 818.963L431.951 824.259V827.79H436.105L450.648 841.914L469.344 857.802L485.964 870.161L515.048 891.346L556.597 916.062L600.223 937.247L643.849 954.901L662.546 960.198L679.166 958.432L712.405 946.074L753.953 928.42L793.425 907.235L818.354 891.346L847.438 871.926L882.754 843.679L901.451 827.79L920.148 808.37L947.155 778.358L972.084 746.58L997.013 713.037L1026.1 663.605L1048.95 615.938L1071.8 557.679L1073.88 547.086L1065.57 548.852V554.148L1059.34 559.444L1051.03 557.679L1048.95 554.148V540.025L1057.26 510.012V497.654L1067.65 444.691L1073.88 379.37V319.346L1069.72 266.383V246.963L1003.25 259.321L976.239 262.852L951.31 264.617H880.677L834.973 259.321L776.805 248.728L729.024 234.605L683.32 216.951L672.933 211.654L660.469 213.42L616.842 231.074L573.216 245.198L515.048 257.556L475.577 262.852L450.648 264.617H382.092L321.846 257.556L267.833 246.963L263.678 294.63L261.601 322.877V370.543L265.756 421.741L269.911 451.753V481.765L271.988 487.062L274.065 517.074H269.911L267.833 522.37L255.369 510.012L249.136 497.654L238.749 457.049L232.517 412.914L230.439 391.728V314.049L234.594 262.852L240.826 220.481L242.904 213.42L263.678 216.951L301.072 225.778L340.543 232.839L371.705 236.37H452.725L502.583 231.074L554.519 220.481L596.068 208.123L643.849 188.704L664.623 178.111Z" fill="white"/>
<path d="M656.314 333.469H685.398L718.637 340.531L739.411 349.358L760.185 363.481L774.727 377.605L787.192 395.259L797.579 423.506L799.657 480L818.354 485.296L828.741 495.889L830.818 499.42V675.963L824.586 686.556L814.199 693.617L807.966 695.383H527.513L515.048 688.321L506.738 679.494L504.661 672.432V501.185L512.97 490.593L523.358 483.531L542.055 480L544.132 425.272L550.364 404.086L562.829 382.901L579.448 365.247L596.068 352.889L629.307 338.765L656.314 333.469Z" fill="#FFB933"/>
<path d="M656.314 363.481H685.398L706.172 368.778L731.101 381.136L747.721 397.025L760.185 418.21L764.34 441.16V480L762.263 481.765H579.449V425.272L587.758 405.852L602.3 388.198L618.92 375.839L639.694 367.012L656.314 363.481Z" fill="#004AAD"/>
<path d="M257.446 693.617L265.756 702.444L269.911 704.21V707.741L280.298 709.506L284.453 716.568L290.685 720.099L296.917 709.506L311.459 707.741L313.537 698.914H319.769V702.444L326.001 704.21L336.389 714.802V718.333H340.543L361.318 744.815L384.17 774.827L402.866 794.247L425.718 818.963L431.951 824.259V827.79H436.105L450.648 841.914L469.344 857.803L485.964 870.161L512.971 889.58H506.738L494.274 884.284H485.964L488.041 887.815L485.964 893.111L477.654 894.877L475.577 901.938L469.344 903.704H461.035L440.26 894.877L423.641 882.519V878.988H415.331L380.015 848.975L363.395 836.617L357.163 829.556L350.931 827.79L323.924 796.012L296.917 760.704L269.911 720.099L257.446 698.914V693.617Z" fill="#222222"/>
<path d="M257.446 314.049H259.523L263.678 402.321L269.911 451.753V481.765L271.988 487.062L274.065 517.074H269.911L267.833 522.37L255.369 510.012L249.136 497.654L238.749 457.049L232.517 412.914L230.439 391.728V365.247L234.594 361.716L236.672 356.42L249.136 352.889L253.291 333.469L255.369 317.58L257.446 314.049Z" fill="#222222"/>
<path d="M687.475 123.383L702.017 125.148L731.101 137.506L785.115 156.926L797.579 162.222L810.044 163.988L845.36 171.049L878.599 176.346H940.922L980.394 172.815L1026.1 163.988H1042.72L1044.79 160.457L1078.03 155.161L1088.42 151.63H1098.81V155.161L1028.17 172.815L980.394 181.642L949.232 185.173H886.909L841.206 179.877L799.657 171.049L753.953 156.926L712.404 139.272L687.475 126.914V123.383Z" fill="#222222"/>
<path d="M666.701 564.741L681.243 568.272L689.553 578.864V591.222L683.32 598.284L681.243 637.123L677.088 644.185L662.546 645.951L654.236 637.123L652.159 596.519L645.927 587.691L648.004 575.333L658.391 566.506L666.701 564.741Z" fill="#004AAD"/>
<path d="M267.833 465.876H271.988L276.143 492.358H271.988L267.833 476.469V465.876Z" fill="#222222"/>
<path d="M668.223 98.8395L693.18 109.732L730.616 127.886L765.972 142.409L815.886 156.932L867.88 166.009L888.678 167.825H951.071L1005.14 160.563L1059.22 147.855L1138.25 126.07L1146.57 124.255L1150.73 135.147L1167.37 253.148L1171.53 303.979V367.518L1167.37 420.165L1161.13 465.55L1150.73 514.565L1138.25 561.766L1121.61 607.151L1107.05 643.459L1088.34 681.582L1063.38 726.967L1038.42 765.09L1003.07 810.475L982.268 834.075L959.39 857.675L934.433 881.276L901.157 910.322L878.279 926.661L853.322 944.815L815.886 966.599L778.451 986.569L728.536 1008.35L674.462 1026.51L657.824 1024.69V1061H655.745V1022.88L634.947 1017.43L582.953 997.461L537.198 975.676L506.002 957.522L476.885 939.368L449.848 919.399L429.05 903.06L381.216 861.306L362.498 841.337L333.381 808.66L312.583 781.429L289.706 748.752L268.908 716.074L246.031 674.32L223.154 623.489L206.516 579.92L191.957 530.904L181.558 487.334L171.16 421.98L167 354.81V322.133L171.16 258.594L189.877 126.07L194.037 124.255L293.866 151.486L343.78 162.378L389.535 167.825H447.768L495.603 162.378L537.198 153.301L568.395 144.224L609.99 127.886L653.665 106.101L657.824 100.655V104.286L668.223 98.8395ZM666.143 195.056L618.309 215.025L574.634 229.548L516.4 242.256L476.885 247.702L451.928 249.517H383.295L322.982 242.256L277.227 233.179H268.908L264.749 260.41L260.589 311.241V360.257L264.749 412.903L273.068 469.181L285.547 521.827L304.264 578.104L325.062 627.12L350.019 674.32L370.817 708.813L402.013 750.567L422.811 775.983L441.529 795.952L464.406 817.737L478.965 832.26L510.161 857.675L539.278 877.645L568.395 895.799L609.99 917.584L657.824 937.553L676.542 939.368L722.297 921.214L761.812 901.245L790.929 883.091L817.966 864.937L842.923 844.968L859.561 832.26L880.359 814.106L899.077 794.137L919.875 772.352L942.752 743.305L965.629 712.444L994.746 663.428L1011.38 632.566L1034.26 579.92L1052.98 523.642L1065.46 470.996L1073.78 420.165L1077.94 369.334V307.61L1071.7 233.179L1052.98 234.994L1005.14 244.071L978.108 247.702L953.151 249.517H882.439L836.684 244.071L778.451 233.179L730.616 218.656L684.861 200.502L674.462 195.056H666.143Z" fill="#FFB933"/>
<path d="M663.896 178.111L674.291 181.642L707.554 195.765L740.818 208.123L774.081 218.716L811.503 227.543L859.319 234.605L875.951 236.37H940.398L984.057 232.839L1038.11 224.012L1092.16 211.654L1096.32 222.247L1102.56 266.383V321.111L1098.4 344.062L1094.24 358.185L1092.16 361.716L1088 359.951L1079.69 345.827L1075.53 319.346H1073.45L1069.29 266.383V246.963L1002.77 259.321L975.741 262.852L950.793 264.617H880.108L834.371 259.321L776.16 248.728L728.344 234.605L682.607 216.951L672.212 211.654L659.738 213.42L616.08 231.074L572.422 245.197L514.211 257.556L474.71 262.852L449.763 264.617H381.157L320.867 257.556L266.814 246.963L262.656 294.63L260.577 322.876V370.543L264.735 421.741L268.893 451.753V481.765L270.972 487.062L273.051 517.074H268.893L266.814 522.37L254.34 510.012L248.103 497.654L237.709 457.049L231.472 412.914L229.393 391.728V314.049L233.551 262.852L239.788 220.481L241.866 213.42L262.656 216.951L300.077 225.778L339.578 232.839L370.762 236.37H451.842L501.737 231.074L553.711 220.481L595.29 208.123L643.107 188.704L663.896 178.111Z" fill="#FFB933"/>
<path d="M1572.2 283.756C1571.06 272.297 1566.18 263.396 1557.57 257.051C1548.95 250.706 1537.25 247.534 1522.48 247.534C1512.44 247.534 1503.97 248.955 1497.06 251.795C1490.14 254.542 1484.84 258.377 1481.15 263.301C1477.55 268.225 1475.75 273.812 1475.75 280.062C1475.56 285.271 1476.65 289.816 1479.02 293.699C1481.48 297.581 1484.84 300.943 1489.1 303.784C1493.36 306.53 1498.29 308.945 1503.87 311.028C1509.46 313.017 1515.43 314.722 1521.77 316.142L1547.91 322.392C1560.6 325.233 1572.24 329.021 1582.85 333.756C1593.46 338.491 1602.64 344.314 1610.41 351.227C1618.17 358.14 1624.19 366.284 1628.45 375.659C1632.8 385.034 1635.03 395.782 1635.12 407.903C1635.03 425.706 1630.48 441.142 1621.49 454.21C1612.59 467.184 1599.71 477.269 1582.85 484.466C1566.09 491.568 1545.87 495.119 1522.2 495.119C1498.71 495.119 1478.26 491.521 1460.83 484.324C1443.5 477.127 1429.96 466.473 1420.21 452.364C1410.55 438.159 1405.48 420.593 1405.01 399.665H1464.53C1465.19 409.419 1467.98 417.562 1472.91 424.097C1477.93 430.536 1484.6 435.413 1492.94 438.727C1501.36 441.947 1510.88 443.557 1521.49 443.557C1531.9 443.557 1540.95 442.042 1548.62 439.011C1556.38 435.981 1562.4 431.767 1566.66 426.369C1570.92 420.972 1573.05 414.769 1573.05 407.761C1573.05 401.227 1571.11 395.735 1567.23 391.284C1563.44 386.833 1557.85 383.045 1550.46 379.92C1543.17 376.795 1534.22 373.955 1523.62 371.398L1491.94 363.443C1467.42 357.477 1448.05 348.15 1433.85 335.46C1419.64 322.771 1412.59 305.678 1412.68 284.182C1412.59 266.568 1417.27 251.18 1426.74 238.017C1436.31 224.854 1449.42 214.58 1466.09 207.193C1482.76 199.807 1501.7 196.114 1522.91 196.114C1544.5 196.114 1563.34 199.807 1579.44 207.193C1595.63 214.58 1608.23 224.854 1617.23 238.017C1626.22 251.18 1630.86 266.426 1631.15 283.756H1572.2ZM1676.49 491V200.091H1872.52V250.801H1738V320.119H1862.43V370.83H1738V440.29H1873.09V491H1676.49ZM2178.09 301.938H2115.88C2114.74 293.888 2112.42 286.739 2108.92 280.489C2105.41 274.144 2100.91 268.746 2095.42 264.295C2089.93 259.845 2083.58 256.436 2076.39 254.068C2069.29 251.701 2061.57 250.517 2053.23 250.517C2038.18 250.517 2025.06 254.258 2013.89 261.739C2002.71 269.125 1994.05 279.92 1987.89 294.125C1981.74 308.235 1978.66 325.375 1978.66 345.545C1978.66 366.284 1981.74 383.708 1987.89 397.818C1994.14 411.928 2002.86 422.581 2014.03 429.778C2025.2 436.975 2038.13 440.574 2052.81 440.574C2061.05 440.574 2068.67 439.485 2075.68 437.307C2082.78 435.129 2089.08 431.956 2094.57 427.79C2100.06 423.528 2104.61 418.367 2108.21 412.307C2111.9 406.246 2114.46 399.333 2115.88 391.568L2178.09 391.852C2176.48 405.205 2172.46 418.083 2166.02 430.489C2159.67 442.799 2151.1 453.831 2140.31 463.585C2129.61 473.244 2116.82 480.915 2101.96 486.597C2087.18 492.184 2070.47 494.977 2051.81 494.977C2025.87 494.977 2002.67 489.106 1982.21 477.364C1961.85 465.621 1945.75 448.623 1933.92 426.369C1922.17 404.116 1916.3 377.174 1916.3 345.545C1916.3 313.822 1922.27 286.833 1934.2 264.58C1946.13 242.326 1962.33 225.375 1982.78 213.727C2003.23 201.985 2026.25 196.114 2051.81 196.114C2068.67 196.114 2084.29 198.481 2098.69 203.216C2113.18 207.951 2126.01 214.864 2137.18 223.955C2148.36 232.951 2157.45 243.983 2164.46 257.051C2171.56 270.119 2176.1 285.081 2178.09 301.938ZM2401.88 200.091H2463.39V389.011C2463.39 410.223 2458.32 428.784 2448.19 444.693C2438.15 460.602 2424.09 473.008 2406 481.909C2387.92 490.716 2366.85 495.119 2342.79 495.119C2318.65 495.119 2297.53 490.716 2279.44 481.909C2261.35 473.008 2247.29 460.602 2237.25 444.693C2227.22 428.784 2222.2 410.223 2222.2 389.011V200.091H2283.7V383.756C2283.7 394.835 2286.12 404.684 2290.95 413.301C2295.87 421.919 2302.78 428.689 2311.69 433.614C2320.59 438.538 2330.96 441 2342.79 441C2354.73 441 2365.1 438.538 2373.9 433.614C2382.8 428.689 2389.67 421.919 2394.5 413.301C2399.42 404.684 2401.88 394.835 2401.88 383.756V200.091ZM2513.99 491V200.091H2628.77C2650.74 200.091 2669.49 204.021 2685.02 211.881C2700.64 219.646 2712.53 230.678 2720.67 244.977C2728.91 259.182 2733.03 275.896 2733.03 295.119C2733.03 314.437 2728.86 331.057 2720.53 344.977C2712.19 358.803 2700.12 369.409 2684.31 376.795C2668.59 384.182 2649.55 387.875 2627.2 387.875H2550.36V338.443H2617.26C2629 338.443 2638.76 336.833 2646.52 333.614C2654.29 330.394 2660.06 325.564 2663.85 319.125C2667.73 312.686 2669.68 304.684 2669.68 295.119C2669.68 285.46 2667.73 277.316 2663.85 270.688C2660.06 264.059 2654.24 259.04 2646.38 255.631C2638.62 252.127 2628.81 250.375 2616.98 250.375H2575.5V491H2513.99ZM2671.1 358.614L2743.4 491H2675.5L2604.76 358.614H2671.1ZM2776.49 491V200.091H2972.52V250.801H2838V320.119H2962.43V370.83H2838V440.29H2973.09V491H2776.49Z" fill="white"/>
<mask id="path-13-outside-1_0_1" maskUnits="userSpaceOnUse" x="1259" y="631" width="1902" height="168" fill="black">
<rect fill="white" x="1259" y="631" width="1902" height="168"/>
<path d="M1351.59 682.969C1351.07 677.24 1348.76 672.786 1344.64 669.609C1340.58 666.38 1334.77 664.766 1327.22 664.766C1322.22 664.766 1318.05 665.417 1314.72 666.719C1311.39 668.021 1308.89 669.818 1307.22 672.109C1305.55 674.349 1304.69 676.927 1304.64 679.844C1304.54 682.24 1305.01 684.349 1306.05 686.172C1307.14 687.995 1308.7 689.609 1310.73 691.016C1312.82 692.37 1315.32 693.568 1318.23 694.609C1321.15 695.651 1324.43 696.562 1328.08 697.344L1341.83 700.469C1349.74 702.188 1356.72 704.479 1362.77 707.344C1368.86 710.208 1373.96 713.62 1378.08 717.578C1382.24 721.536 1385.4 726.094 1387.53 731.25C1389.67 736.406 1390.76 742.187 1390.81 748.594C1390.76 758.698 1388.21 767.37 1383.16 774.609C1378.1 781.849 1370.84 787.396 1361.36 791.25C1351.93 795.104 1340.55 797.031 1327.22 797.031C1313.83 797.031 1302.17 795.026 1292.22 791.016C1282.27 787.005 1274.54 780.911 1269.02 772.734C1263.49 764.557 1260.66 754.219 1260.5 741.719H1297.53C1297.84 746.875 1299.22 751.172 1301.67 754.609C1304.12 758.047 1307.48 760.651 1311.75 762.422C1316.07 764.193 1321.07 765.078 1326.75 765.078C1331.96 765.078 1336.39 764.375 1340.03 762.969C1343.73 761.563 1346.57 759.609 1348.55 757.109C1350.53 754.609 1351.54 751.745 1351.59 748.516C1351.54 745.495 1350.6 742.917 1348.78 740.781C1346.96 738.594 1344.15 736.719 1340.34 735.156C1336.59 733.542 1331.8 732.057 1325.97 730.703L1309.25 726.797C1295.4 723.62 1284.48 718.49 1276.52 711.406C1268.55 704.271 1264.59 694.635 1264.64 682.5C1264.59 672.604 1267.24 663.932 1272.61 656.484C1277.97 649.036 1285.4 643.229 1294.88 639.063C1304.35 634.896 1315.16 632.812 1327.3 632.812C1339.69 632.812 1350.45 634.922 1359.56 639.141C1368.73 643.307 1375.84 649.167 1380.89 656.719C1385.94 664.271 1388.52 673.021 1388.63 682.969H1351.59ZM1496.83 682.969C1496.31 677.24 1493.99 672.786 1489.88 669.609C1485.81 666.38 1480.01 664.766 1472.45 664.766C1467.45 664.766 1463.29 665.417 1459.95 666.719C1456.62 668.021 1454.12 669.818 1452.45 672.109C1450.79 674.349 1449.93 676.927 1449.88 679.844C1449.77 682.24 1450.24 684.349 1451.28 686.172C1452.38 687.995 1453.94 689.609 1455.97 691.016C1458.05 692.37 1460.55 693.568 1463.47 694.609C1466.39 695.651 1469.67 696.562 1473.31 697.344L1487.06 700.469C1494.98 702.188 1501.96 704.479 1508 707.344C1514.09 710.208 1519.2 713.62 1523.31 717.578C1527.48 721.536 1530.63 726.094 1532.77 731.25C1534.9 736.406 1535.99 742.187 1536.05 748.594C1535.99 758.698 1533.44 767.37 1528.39 774.609C1523.34 781.849 1516.07 787.396 1506.59 791.25C1497.17 795.104 1485.79 797.031 1472.45 797.031C1459.07 797.031 1447.4 795.026 1437.45 791.016C1427.51 787.005 1419.77 780.911 1414.25 772.734C1408.73 764.557 1405.89 754.219 1405.73 741.719H1442.77C1443.08 746.875 1444.46 751.172 1446.91 754.609C1449.35 758.047 1452.71 760.651 1456.98 762.422C1461.31 764.193 1466.31 765.078 1471.98 765.078C1477.19 765.078 1481.62 764.375 1485.27 762.969C1488.96 761.563 1491.8 759.609 1493.78 757.109C1495.76 754.609 1496.78 751.745 1496.83 748.516C1496.78 745.495 1495.84 742.917 1494.02 740.781C1492.19 738.594 1489.38 736.719 1485.58 735.156C1481.83 733.542 1477.04 732.057 1471.2 730.703L1454.48 726.797C1440.63 723.62 1429.72 718.49 1421.75 711.406C1413.78 704.271 1409.82 694.635 1409.88 682.5C1409.82 672.604 1412.48 663.932 1417.84 656.484C1423.21 649.036 1430.63 643.229 1440.11 639.063C1449.59 634.896 1460.4 632.812 1472.53 632.812C1484.93 632.812 1495.68 634.922 1504.8 639.141C1513.96 643.307 1521.07 649.167 1526.13 656.719C1531.18 664.271 1533.76 673.021 1533.86 682.969H1496.83ZM1555.58 795V635H1594.25V763.594H1660.81V795H1555.58ZM1728.1 795V635H1839.66V666.406H1766.77V699.219H1833.96V730.703H1766.77V763.594H1839.66V795H1728.1ZM2000.05 635V795H1967.24L1903.57 702.656H1902.55V795H1863.88V635H1897.16L1960.13 727.187H1961.46V635H2000.05ZM2169.6 692.969H2130.54C2130.02 688.958 2128.95 685.339 2127.34 682.109C2125.72 678.88 2123.59 676.12 2120.93 673.828C2118.27 671.536 2115.12 669.792 2111.48 668.594C2107.88 667.344 2103.9 666.719 2099.52 666.719C2091.76 666.719 2085.07 668.62 2079.45 672.422C2073.87 676.224 2069.58 681.719 2066.55 688.906C2063.59 696.094 2062.1 704.792 2062.1 715C2062.1 725.625 2063.61 734.531 2066.63 741.719C2069.71 748.854 2074 754.245 2079.52 757.891C2085.1 761.484 2091.68 763.281 2099.29 763.281C2103.56 763.281 2107.44 762.734 2110.93 761.641C2114.47 760.547 2117.57 758.958 2120.23 756.875C2122.93 754.74 2125.15 752.161 2126.87 749.141C2128.64 746.068 2129.86 742.604 2130.54 738.75L2169.6 738.984C2168.92 746.068 2166.87 753.047 2163.43 759.922C2160.04 766.797 2155.38 773.073 2149.45 778.75C2143.51 784.375 2136.27 788.854 2127.73 792.187C2119.24 795.521 2109.5 797.187 2098.51 797.187C2084.03 797.187 2071.06 794.01 2059.6 787.656C2048.2 781.25 2039.18 771.927 2032.57 759.687C2025.96 747.448 2022.65 732.552 2022.65 715C2022.65 697.396 2026.01 682.474 2032.73 670.234C2039.45 657.995 2048.53 648.698 2059.99 642.344C2071.45 635.99 2084.29 632.812 2098.51 632.812C2108.2 632.812 2117.15 634.167 2125.38 636.875C2133.61 639.531 2140.85 643.437 2147.1 648.594C2153.35 653.698 2158.43 659.974 2162.34 667.422C2166.24 674.87 2168.66 683.385 2169.6 692.969ZM2191.73 795V635H2257.82C2269.8 635 2280.14 637.161 2288.84 641.484C2297.59 645.755 2304.33 651.901 2309.07 659.922C2313.81 667.891 2316.18 677.344 2316.18 688.281C2316.18 699.375 2313.76 708.802 2308.92 716.562C2304.07 724.271 2297.2 730.156 2288.29 734.219C2279.39 738.229 2268.84 740.234 2256.65 740.234H2214.86V709.766H2249.46C2255.3 709.766 2260.17 709.01 2264.07 707.5C2268.03 705.937 2271.03 703.594 2273.06 700.469C2275.09 697.292 2276.11 693.229 2276.11 688.281C2276.11 683.333 2275.09 679.245 2273.06 676.016C2271.03 672.734 2268.03 670.286 2264.07 668.672C2260.12 667.005 2255.25 666.172 2249.46 666.172H2230.4V795H2191.73ZM2281.81 721.875L2321.65 795H2279.46L2240.4 721.875H2281.81ZM2322.34 635H2365.54L2399.37 701.953H2400.77L2434.6 635H2477.8L2419.29 741.562V795H2380.85V741.562L2322.34 635ZM2494.02 795V635H2560.11C2572.09 635 2582.43 637.344 2591.13 642.031C2599.88 646.667 2606.62 653.151 2611.36 661.484C2616.1 669.766 2618.47 679.401 2618.47 690.391C2618.47 701.432 2616.05 711.094 2611.2 719.375C2606.41 727.604 2599.56 733.984 2590.66 738.516C2581.75 743.047 2571.18 745.312 2558.94 745.312H2518.16V714.844H2551.75C2557.58 714.844 2562.45 713.828 2566.36 711.797C2570.32 709.766 2573.31 706.927 2575.34 703.281C2577.38 699.583 2578.39 695.286 2578.39 690.391C2578.39 685.443 2577.38 681.172 2575.34 677.578C2573.31 673.932 2570.32 671.12 2566.36 669.141C2562.4 667.161 2557.53 666.172 2551.75 666.172H2532.69V795H2494.02ZM2632.3 666.406V635H2767.53V666.406H2719.02V795H2680.89V666.406H2632.3ZM2825.09 635V795H2786.42V635H2825.09ZM3000.38 715C3000.38 732.604 2997 747.526 2990.23 759.766C2983.46 772.005 2974.29 781.302 2962.73 787.656C2951.22 794.01 2938.3 797.187 2923.98 797.187C2909.6 797.187 2896.66 793.984 2885.15 787.578C2873.64 781.172 2864.5 771.875 2857.73 759.687C2851.01 747.448 2847.65 732.552 2847.65 715C2847.65 697.396 2851.01 682.474 2857.73 670.234C2864.5 657.995 2873.64 648.698 2885.15 642.344C2896.66 635.99 2909.6 632.812 2923.98 632.812C2938.3 632.812 2951.22 635.99 2962.73 642.344C2974.29 648.698 2983.46 657.995 2990.23 670.234C2997 682.474 3000.38 697.396 3000.38 715ZM2960.85 715C2960.85 704.583 2959.37 695.781 2956.4 688.594C2953.48 681.406 2949.26 675.964 2943.74 672.266C2938.27 668.568 2931.68 666.719 2923.98 666.719C2916.32 666.719 2909.73 668.568 2904.21 672.266C2898.69 675.964 2894.45 681.406 2891.48 688.594C2888.56 695.781 2887.1 704.583 2887.1 715C2887.1 725.417 2888.56 734.219 2891.48 741.406C2894.45 748.594 2898.69 754.036 2904.21 757.734C2909.73 761.432 2916.32 763.281 2923.98 763.281C2931.68 763.281 2938.27 761.432 2943.74 757.734C2949.26 754.036 2953.48 748.594 2956.4 741.406C2959.37 734.219 2960.85 725.417 2960.85 715ZM3159.13 635V795H3126.32L3062.65 702.656H3061.63V795H3022.96V635H3056.24L3119.21 727.187H3120.54V635H3159.13Z"/>
</mask>
<path d="M1351.59 682.969C1351.07 677.24 1348.76 672.786 1344.64 669.609C1340.58 666.38 1334.77 664.766 1327.22 664.766C1322.22 664.766 1318.05 665.417 1314.72 666.719C1311.39 668.021 1308.89 669.818 1307.22 672.109C1305.55 674.349 1304.69 676.927 1304.64 679.844C1304.54 682.24 1305.01 684.349 1306.05 686.172C1307.14 687.995 1308.7 689.609 1310.73 691.016C1312.82 692.37 1315.32 693.568 1318.23 694.609C1321.15 695.651 1324.43 696.562 1328.08 697.344L1341.83 700.469C1349.74 702.188 1356.72 704.479 1362.77 707.344C1368.86 710.208 1373.96 713.62 1378.08 717.578C1382.24 721.536 1385.4 726.094 1387.53 731.25C1389.67 736.406 1390.76 742.187 1390.81 748.594C1390.76 758.698 1388.21 767.37 1383.16 774.609C1378.1 781.849 1370.84 787.396 1361.36 791.25C1351.93 795.104 1340.55 797.031 1327.22 797.031C1313.83 797.031 1302.17 795.026 1292.22 791.016C1282.27 787.005 1274.54 780.911 1269.02 772.734C1263.49 764.557 1260.66 754.219 1260.5 741.719H1297.53C1297.84 746.875 1299.22 751.172 1301.67 754.609C1304.12 758.047 1307.48 760.651 1311.75 762.422C1316.07 764.193 1321.07 765.078 1326.75 765.078C1331.96 765.078 1336.39 764.375 1340.03 762.969C1343.73 761.563 1346.57 759.609 1348.55 757.109C1350.53 754.609 1351.54 751.745 1351.59 748.516C1351.54 745.495 1350.6 742.917 1348.78 740.781C1346.96 738.594 1344.15 736.719 1340.34 735.156C1336.59 733.542 1331.8 732.057 1325.97 730.703L1309.25 726.797C1295.4 723.62 1284.48 718.49 1276.52 711.406C1268.55 704.271 1264.59 694.635 1264.64 682.5C1264.59 672.604 1267.24 663.932 1272.61 656.484C1277.97 649.036 1285.4 643.229 1294.88 639.063C1304.35 634.896 1315.16 632.812 1327.3 632.812C1339.69 632.812 1350.45 634.922 1359.56 639.141C1368.73 643.307 1375.84 649.167 1380.89 656.719C1385.94 664.271 1388.52 673.021 1388.63 682.969H1351.59ZM1496.83 682.969C1496.31 677.24 1493.99 672.786 1489.88 669.609C1485.81 666.38 1480.01 664.766 1472.45 664.766C1467.45 664.766 1463.29 665.417 1459.95 666.719C1456.62 668.021 1454.12 669.818 1452.45 672.109C1450.79 674.349 1449.93 676.927 1449.88 679.844C1449.77 682.24 1450.24 684.349 1451.28 686.172C1452.38 687.995 1453.94 689.609 1455.97 691.016C1458.05 692.37 1460.55 693.568 1463.47 694.609C1466.39 695.651 1469.67 696.562 1473.31 697.344L1487.06 700.469C1494.98 702.188 1501.96 704.479 1508 707.344C1514.09 710.208 1519.2 713.62 1523.31 717.578C1527.48 721.536 1530.63 726.094 1532.77 731.25C1534.9 736.406 1535.99 742.187 1536.05 748.594C1535.99 758.698 1533.44 767.37 1528.39 774.609C1523.34 781.849 1516.07 787.396 1506.59 791.25C1497.17 795.104 1485.79 797.031 1472.45 797.031C1459.07 797.031 1447.4 795.026 1437.45 791.016C1427.51 787.005 1419.77 780.911 1414.25 772.734C1408.73 764.557 1405.89 754.219 1405.73 741.719H1442.77C1443.08 746.875 1444.46 751.172 1446.91 754.609C1449.35 758.047 1452.71 760.651 1456.98 762.422C1461.31 764.193 1466.31 765.078 1471.98 765.078C1477.19 765.078 1481.62 764.375 1485.27 762.969C1488.96 761.563 1491.8 759.609 1493.78 757.109C1495.76 754.609 1496.78 751.745 1496.83 748.516C1496.78 745.495 1495.84 742.917 1494.02 740.781C1492.19 738.594 1489.38 736.719 1485.58 735.156C1481.83 733.542 1477.04 732.057 1471.2 730.703L1454.48 726.797C1440.63 723.62 1429.72 718.49 1421.75 711.406C1413.78 704.271 1409.82 694.635 1409.88 682.5C1409.82 672.604 1412.48 663.932 1417.84 656.484C1423.21 649.036 1430.63 643.229 1440.11 639.063C1449.59 634.896 1460.4 632.812 1472.53 632.812C1484.93 632.812 1495.68 634.922 1504.8 639.141C1513.96 643.307 1521.07 649.167 1526.13 656.719C1531.18 664.271 1533.76 673.021 1533.86 682.969H1496.83ZM1555.58 795V635H1594.25V763.594H1660.81V795H1555.58ZM1728.1 795V635H1839.66V666.406H1766.77V699.219H1833.96V730.703H1766.77V763.594H1839.66V795H1728.1ZM2000.05 635V795H1967.24L1903.57 702.656H1902.55V795H1863.88V635H1897.16L1960.13 727.187H1961.46V635H2000.05ZM2169.6 692.969H2130.54C2130.02 688.958 2128.95 685.339 2127.34 682.109C2125.72 678.88 2123.59 676.12 2120.93 673.828C2118.27 671.536 2115.12 669.792 2111.48 668.594C2107.88 667.344 2103.9 666.719 2099.52 666.719C2091.76 666.719 2085.07 668.62 2079.45 672.422C2073.87 676.224 2069.58 681.719 2066.55 688.906C2063.59 696.094 2062.1 704.792 2062.1 715C2062.1 725.625 2063.61 734.531 2066.63 741.719C2069.71 748.854 2074 754.245 2079.52 757.891C2085.1 761.484 2091.68 763.281 2099.29 763.281C2103.56 763.281 2107.44 762.734 2110.93 761.641C2114.47 760.547 2117.57 758.958 2120.23 756.875C2122.93 754.74 2125.15 752.161 2126.87 749.141C2128.64 746.068 2129.86 742.604 2130.54 738.75L2169.6 738.984C2168.92 746.068 2166.87 753.047 2163.43 759.922C2160.04 766.797 2155.38 773.073 2149.45 778.75C2143.51 784.375 2136.27 788.854 2127.73 792.187C2119.24 795.521 2109.5 797.187 2098.51 797.187C2084.03 797.187 2071.06 794.01 2059.6 787.656C2048.2 781.25 2039.18 771.927 2032.57 759.687C2025.96 747.448 2022.65 732.552 2022.65 715C2022.65 697.396 2026.01 682.474 2032.73 670.234C2039.45 657.995 2048.53 648.698 2059.99 642.344C2071.45 635.99 2084.29 632.812 2098.51 632.812C2108.2 632.812 2117.15 634.167 2125.38 636.875C2133.61 639.531 2140.85 643.437 2147.1 648.594C2153.35 653.698 2158.43 659.974 2162.34 667.422C2166.24 674.87 2168.66 683.385 2169.6 692.969ZM2191.73 795V635H2257.82C2269.8 635 2280.14 637.161 2288.84 641.484C2297.59 645.755 2304.33 651.901 2309.07 659.922C2313.81 667.891 2316.18 677.344 2316.18 688.281C2316.18 699.375 2313.76 708.802 2308.92 716.562C2304.07 724.271 2297.2 730.156 2288.29 734.219C2279.39 738.229 2268.84 740.234 2256.65 740.234H2214.86V709.766H2249.46C2255.3 709.766 2260.17 709.01 2264.07 707.5C2268.03 705.937 2271.03 703.594 2273.06 700.469C2275.09 697.292 2276.11 693.229 2276.11 688.281C2276.11 683.333 2275.09 679.245 2273.06 676.016C2271.03 672.734 2268.03 670.286 2264.07 668.672C2260.12 667.005 2255.25 666.172 2249.46 666.172H2230.4V795H2191.73ZM2281.81 721.875L2321.65 795H2279.46L2240.4 721.875H2281.81ZM2322.34 635H2365.54L2399.37 701.953H2400.77L2434.6 635H2477.8L2419.29 741.562V795H2380.85V741.562L2322.34 635ZM2494.02 795V635H2560.11C2572.09 635 2582.43 637.344 2591.13 642.031C2599.88 646.667 2606.62 653.151 2611.36 661.484C2616.1 669.766 2618.47 679.401 2618.47 690.391C2618.47 701.432 2616.05 711.094 2611.2 719.375C2606.41 727.604 2599.56 733.984 2590.66 738.516C2581.75 743.047 2571.18 745.312 2558.94 745.312H2518.16V714.844H2551.75C2557.58 714.844 2562.45 713.828 2566.36 711.797C2570.32 709.766 2573.31 706.927 2575.34 703.281C2577.38 699.583 2578.39 695.286 2578.39 690.391C2578.39 685.443 2577.38 681.172 2575.34 677.578C2573.31 673.932 2570.32 671.12 2566.36 669.141C2562.4 667.161 2557.53 666.172 2551.75 666.172H2532.69V795H2494.02ZM2632.3 666.406V635H2767.53V666.406H2719.02V795H2680.89V666.406H2632.3ZM2825.09 635V795H2786.42V635H2825.09ZM3000.38 715C3000.38 732.604 2997 747.526 2990.23 759.766C2983.46 772.005 2974.29 781.302 2962.73 787.656C2951.22 794.01 2938.3 797.187 2923.98 797.187C2909.6 797.187 2896.66 793.984 2885.15 787.578C2873.64 781.172 2864.5 771.875 2857.73 759.687C2851.01 747.448 2847.65 732.552 2847.65 715C2847.65 697.396 2851.01 682.474 2857.73 670.234C2864.5 657.995 2873.64 648.698 2885.15 642.344C2896.66 635.99 2909.6 632.812 2923.98 632.812C2938.3 632.812 2951.22 635.99 2962.73 642.344C2974.29 648.698 2983.46 657.995 2990.23 670.234C2997 682.474 3000.38 697.396 3000.38 715ZM2960.85 715C2960.85 704.583 2959.37 695.781 2956.4 688.594C2953.48 681.406 2949.26 675.964 2943.74 672.266C2938.27 668.568 2931.68 666.719 2923.98 666.719C2916.32 666.719 2909.73 668.568 2904.21 672.266C2898.69 675.964 2894.45 681.406 2891.48 688.594C2888.56 695.781 2887.1 704.583 2887.1 715C2887.1 725.417 2888.56 734.219 2891.48 741.406C2894.45 748.594 2898.69 754.036 2904.21 757.734C2909.73 761.432 2916.32 763.281 2923.98 763.281C2931.68 763.281 2938.27 761.432 2943.74 757.734C2949.26 754.036 2953.48 748.594 2956.4 741.406C2959.37 734.219 2960.85 725.417 2960.85 715ZM3159.13 635V795H3126.32L3062.65 702.656H3061.63V795H3022.96V635H3056.24L3119.21 727.187H3120.54V635H3159.13Z" fill="white"/>
<path d="M1351.59 682.969L1350.6 683.059L1350.68 683.969H1351.59V682.969ZM1344.64 669.609L1344.02 670.392L1344.03 670.401L1344.64 669.609ZM1314.72 666.719L1314.35 665.787H1314.35L1314.72 666.719ZM1307.22 672.109L1308.02 672.706L1308.03 672.698L1307.22 672.109ZM1304.64 679.844L1305.64 679.887L1305.64 679.874L1305.64 679.862L1304.64 679.844ZM1306.05 686.172L1305.18 686.668L1305.18 686.677L1305.19 686.686L1306.05 686.172ZM1310.73 691.016L1310.17 691.838L1310.18 691.846L1310.19 691.854L1310.73 691.016ZM1318.23 694.609L1318.57 693.668L1318.23 694.609ZM1328.08 697.344L1328.3 696.369L1328.29 696.366L1328.08 697.344ZM1341.83 700.469L1341.61 701.444L1341.62 701.446L1341.83 700.469ZM1362.77 707.344L1362.34 708.247L1362.34 708.249L1362.77 707.344ZM1378.08 717.578L1377.38 718.299L1377.39 718.303L1378.08 717.578ZM1387.53 731.25L1386.61 731.633V731.633L1387.53 731.25ZM1390.81 748.594L1391.81 748.599L1391.81 748.586L1390.81 748.594ZM1383.16 774.609L1382.34 774.037L1383.16 774.609ZM1361.36 791.25L1360.98 790.324L1360.98 790.324L1361.36 791.25ZM1292.22 791.016L1292.59 790.088L1292.22 791.016ZM1269.02 772.734L1268.19 773.294L1269.02 772.734ZM1260.5 741.719V740.719H1259.49L1259.5 741.731L1260.5 741.719ZM1297.53 741.719L1298.53 741.658L1298.47 740.719H1297.53V741.719ZM1301.67 754.609L1300.86 755.189L1301.67 754.609ZM1311.75 762.422L1311.37 763.346L1311.37 763.347L1311.75 762.422ZM1340.03 762.969L1339.68 762.034L1339.67 762.036L1340.03 762.969ZM1348.55 757.109L1347.76 756.489L1348.55 757.109ZM1351.59 748.516L1352.59 748.532L1352.59 748.515L1352.59 748.498L1351.59 748.516ZM1348.78 740.781L1348.01 741.421L1348.02 741.431L1348.78 740.781ZM1340.34 735.156L1339.95 736.075L1339.96 736.078L1339.96 736.081L1340.34 735.156ZM1325.97 730.703L1325.74 731.677L1325.74 731.677L1325.97 730.703ZM1309.25 726.797L1309.48 725.823L1309.47 725.822L1309.25 726.797ZM1276.52 711.406L1275.85 712.151L1275.85 712.154L1276.52 711.406ZM1264.64 682.5L1265.64 682.504L1265.64 682.495L1264.64 682.5ZM1272.61 656.484L1271.8 655.9L1272.61 656.484ZM1294.88 639.062L1295.28 639.978V639.978L1294.88 639.062ZM1359.56 639.141L1359.14 640.048L1359.15 640.051L1359.56 639.141ZM1380.89 656.719L1381.72 656.163L1380.89 656.719ZM1388.63 682.969V683.969H1389.64L1389.62 682.958L1388.63 682.969ZM1352.59 682.878C1352.05 676.905 1349.61 672.184 1345.25 668.818L1344.03 670.401C1347.9 673.389 1350.1 677.574 1350.6 683.059L1352.59 682.878ZM1345.26 668.827C1340.96 665.405 1334.9 663.766 1327.22 663.766V665.766C1334.64 665.766 1340.2 667.355 1344.02 670.392L1345.26 668.827ZM1327.22 663.766C1322.14 663.766 1317.84 664.426 1314.35 665.787L1315.08 667.65C1318.26 666.408 1322.3 665.766 1327.22 665.766V663.766ZM1314.35 665.787C1310.89 667.141 1308.22 669.039 1306.41 671.521L1308.03 672.698C1309.56 670.596 1311.88 668.901 1315.08 667.65L1314.35 665.787ZM1306.42 671.512C1304.62 673.927 1303.7 676.71 1303.64 679.826L1305.64 679.862C1305.69 677.144 1306.48 674.77 1308.02 672.706L1306.42 671.512ZM1303.64 679.8C1303.53 682.357 1304.03 684.659 1305.18 686.668L1306.92 685.676C1305.98 684.039 1305.54 682.122 1305.64 679.887L1303.64 679.8ZM1305.19 686.686C1306.37 688.649 1308.04 690.364 1310.17 691.838L1311.3 690.193C1309.37 688.855 1307.91 687.34 1306.9 685.657L1305.19 686.686ZM1310.19 691.854C1312.35 693.26 1314.93 694.489 1317.9 695.551L1318.57 693.668C1315.71 692.646 1313.28 691.48 1311.28 690.177L1310.19 691.854ZM1317.9 695.551C1320.86 696.61 1324.19 697.533 1327.87 698.322L1328.29 696.366C1324.68 695.592 1321.44 694.692 1318.57 693.668L1317.9 695.551ZM1327.86 698.319L1341.61 701.444L1342.05 699.494L1328.3 696.369L1327.86 698.319ZM1341.62 701.446C1349.47 703.152 1356.38 705.422 1362.34 708.247L1363.19 706.44C1357.07 703.537 1350.02 701.223 1342.04 699.492L1341.62 701.446ZM1362.34 708.249C1368.35 711.075 1373.36 714.428 1377.38 718.299L1378.77 716.857C1374.57 712.811 1369.37 709.342 1363.19 706.439L1362.34 708.249ZM1377.39 718.303C1381.46 722.168 1384.53 726.61 1386.61 731.633L1388.46 730.867C1386.26 725.578 1383.03 720.905 1378.77 716.853L1377.39 718.303ZM1386.61 731.633C1388.69 736.654 1389.76 742.305 1389.81 748.602L1391.81 748.586C1391.76 742.07 1390.65 736.159 1388.46 730.867L1386.61 731.633ZM1389.81 748.589C1389.76 758.52 1387.26 766.987 1382.34 774.037L1383.98 775.182C1389.16 767.752 1391.76 758.876 1391.81 748.599L1389.81 748.589ZM1382.34 774.037C1377.41 781.094 1370.31 786.53 1360.98 790.324L1361.74 792.176C1371.36 788.261 1378.8 782.604 1383.98 775.182L1382.34 774.037ZM1360.98 790.324C1351.7 794.117 1340.46 796.031 1327.22 796.031V798.031C1340.64 798.031 1352.16 796.092 1361.74 792.176L1360.98 790.324ZM1327.22 796.031C1313.93 796.031 1302.4 794.04 1292.59 790.088L1291.84 791.943C1301.94 796.012 1313.74 798.031 1327.22 798.031V796.031ZM1292.59 790.088C1282.81 786.145 1275.24 780.172 1269.84 772.175L1268.19 773.294C1273.83 781.651 1281.73 787.865 1291.84 791.943L1292.59 790.088ZM1269.84 772.175C1264.46 764.198 1261.65 754.063 1261.5 741.706L1259.5 741.731C1259.66 754.374 1262.53 764.917 1268.19 773.294L1269.84 772.175ZM1260.5 742.719H1297.53V740.719H1260.5V742.719ZM1296.53 741.779C1296.85 747.08 1298.28 751.568 1300.86 755.189L1302.49 754.029C1300.17 750.775 1298.83 746.67 1298.53 741.658L1296.53 741.779ZM1300.86 755.189C1303.42 758.794 1306.94 761.51 1311.37 763.346L1312.13 761.498C1308.02 759.792 1304.82 757.3 1302.49 754.029L1300.86 755.189ZM1311.37 763.347C1315.84 765.177 1320.97 766.078 1326.75 766.078V764.078C1321.18 764.078 1316.31 763.209 1312.13 761.497L1311.37 763.347ZM1326.75 766.078C1332.04 766.078 1336.6 765.364 1340.39 763.902L1339.67 762.036C1336.17 763.386 1331.87 764.078 1326.75 764.078V766.078ZM1340.39 763.903C1344.21 762.448 1347.22 760.402 1349.33 757.73L1347.76 756.489C1345.92 758.817 1343.25 760.677 1339.68 762.034L1340.39 763.903ZM1349.33 757.73C1351.45 755.055 1352.54 751.978 1352.59 748.532L1350.59 748.499C1350.55 751.512 1349.6 754.163 1347.76 756.489L1349.33 757.73ZM1352.59 748.498C1352.54 745.264 1351.53 742.458 1349.54 740.132L1348.02 741.431C1349.68 743.375 1350.55 745.725 1350.59 748.533L1352.59 748.498ZM1349.55 740.141C1347.59 737.785 1344.61 735.83 1340.72 734.231L1339.96 736.081C1343.68 737.607 1346.33 739.402 1348.01 741.421L1349.55 740.141ZM1340.74 734.238C1336.92 732.592 1332.06 731.091 1326.19 729.729L1325.74 731.677C1331.54 733.024 1336.27 734.492 1339.95 736.075L1340.74 734.238ZM1326.2 729.729L1309.48 725.823L1309.02 727.771L1325.74 731.677L1326.2 729.729ZM1309.47 725.822C1295.73 722.671 1284.99 717.6 1277.18 710.659L1275.85 712.154C1283.98 719.38 1295.06 724.569 1309.03 727.772L1309.47 725.822ZM1277.18 710.661C1269.46 703.743 1265.59 694.397 1265.64 682.504L1263.64 682.496C1263.59 694.874 1267.64 704.798 1275.85 712.151L1277.18 710.661ZM1265.64 682.495C1265.59 672.793 1268.19 664.331 1273.42 657.069L1271.8 655.9C1266.3 663.533 1263.59 672.415 1263.64 682.505L1265.64 682.495ZM1273.42 657.069C1278.67 649.784 1285.94 644.082 1295.28 639.978L1294.47 638.147C1284.85 642.376 1277.28 648.289 1271.8 655.9L1273.42 657.069ZM1295.28 639.978C1304.61 635.876 1315.28 633.812 1327.3 633.812V631.812C1315.05 631.812 1304.1 633.916 1294.47 638.147L1295.28 639.978ZM1327.3 633.812C1339.58 633.812 1350.19 635.903 1359.14 640.048L1359.98 638.233C1350.71 633.941 1339.8 631.812 1327.3 631.812V633.812ZM1359.15 640.051C1368.16 644.149 1375.12 649.894 1380.06 657.275L1381.72 656.163C1376.56 648.44 1369.29 642.465 1359.98 638.23L1359.15 640.051ZM1380.06 657.275C1384.99 664.65 1387.52 673.206 1387.63 682.979L1389.62 682.958C1389.52 672.835 1386.89 663.892 1381.72 656.163L1380.06 657.275ZM1388.63 681.969H1351.59V683.969H1388.63V681.969ZM1496.83 682.969L1495.83 683.059L1495.91 683.969H1496.83V682.969ZM1489.88 669.609L1489.25 670.392L1489.26 670.401L1489.88 669.609ZM1459.95 666.719L1459.59 665.787L1459.95 666.719ZM1452.45 672.109L1453.26 672.706L1453.26 672.698L1452.45 672.109ZM1449.88 679.844L1450.87 679.887L1450.87 679.874L1450.87 679.862L1449.88 679.844ZM1451.28 686.172L1450.41 686.668L1450.42 686.677L1450.42 686.686L1451.28 686.172ZM1455.97 691.016L1455.4 691.838L1455.41 691.846L1455.42 691.854L1455.97 691.016ZM1463.47 694.609L1463.81 693.668L1463.47 694.609ZM1473.31 697.344L1473.53 696.369L1473.52 696.366L1473.31 697.344ZM1487.06 700.469L1486.84 701.444L1486.85 701.446L1487.06 700.469ZM1508 707.344L1507.57 708.247L1507.57 708.249L1508 707.344ZM1523.31 717.578L1522.62 718.299L1522.62 718.303L1523.31 717.578ZM1532.77 731.25L1531.84 731.633V731.633L1532.77 731.25ZM1536.05 748.594L1537.05 748.599L1537.05 748.586L1536.05 748.594ZM1528.39 774.609L1527.57 774.037L1528.39 774.609ZM1506.59 791.25L1506.22 790.324L1506.22 790.324L1506.59 791.25ZM1437.45 791.016L1437.83 790.088L1437.45 791.016ZM1414.25 772.734L1413.42 773.294L1414.25 772.734ZM1405.73 741.719V740.719H1404.72L1404.73 741.731L1405.73 741.719ZM1442.77 741.719L1443.76 741.658L1443.71 740.719H1442.77V741.719ZM1446.91 754.609L1446.09 755.189L1446.91 754.609ZM1456.98 762.422L1456.6 763.346L1456.61 763.347L1456.98 762.422ZM1485.27 762.969L1484.91 762.034L1484.91 762.036L1485.27 762.969ZM1493.78 757.109L1493 756.489L1493.78 757.109ZM1496.83 748.516L1497.83 748.532L1497.83 748.515L1497.83 748.498L1496.83 748.516ZM1494.02 740.781L1493.25 741.421L1493.26 741.431L1494.02 740.781ZM1485.58 735.156L1485.18 736.075L1485.19 736.078L1485.2 736.081L1485.58 735.156ZM1471.2 730.703L1470.98 731.677L1470.98 731.677L1471.2 730.703ZM1454.48 726.797L1454.71 725.823L1454.71 725.822L1454.48 726.797ZM1421.75 711.406L1421.08 712.151L1421.09 712.154L1421.75 711.406ZM1409.88 682.5L1410.88 682.504L1410.87 682.495L1409.88 682.5ZM1417.84 656.484L1417.03 655.9L1417.84 656.484ZM1440.11 639.062L1440.51 639.978V639.978L1440.11 639.062ZM1504.8 639.141L1504.38 640.048L1504.38 640.051L1504.8 639.141ZM1526.12 656.719L1526.96 656.163L1526.12 656.719ZM1533.86 682.969V683.969H1534.87L1534.86 682.958L1533.86 682.969ZM1497.82 682.878C1497.28 676.905 1494.85 672.184 1490.49 668.818L1489.26 670.401C1493.13 673.389 1495.33 677.574 1495.83 683.059L1497.82 682.878ZM1490.5 668.827C1486.19 665.405 1480.13 663.766 1472.45 663.766V665.766C1479.88 665.766 1485.43 667.355 1489.25 670.392L1490.5 668.827ZM1472.45 663.766C1467.37 663.766 1463.07 664.426 1459.59 665.787L1460.32 667.65C1463.5 666.408 1467.53 665.766 1472.45 665.766V663.766ZM1459.59 665.787C1456.12 667.141 1453.45 669.039 1451.64 671.521L1453.26 672.698C1454.79 670.596 1457.12 668.901 1460.32 667.65L1459.59 665.787ZM1451.65 671.512C1449.85 673.927 1448.93 676.71 1448.88 679.826L1450.87 679.862C1450.92 677.144 1451.72 674.77 1453.26 672.706L1451.65 671.512ZM1448.88 679.8C1448.76 682.357 1449.26 684.659 1450.41 686.668L1452.15 685.676C1451.21 684.039 1450.78 682.122 1450.87 679.887L1448.88 679.8ZM1450.42 686.686C1451.6 688.649 1453.27 690.364 1455.4 691.838L1456.54 690.193C1454.6 688.855 1453.15 687.34 1452.14 685.657L1450.42 686.686ZM1455.42 691.854C1457.59 693.26 1460.16 694.489 1463.13 695.551L1463.81 693.668C1460.94 692.646 1458.52 691.48 1456.51 690.177L1455.42 691.854ZM1463.13 695.551C1466.1 696.61 1469.42 697.533 1473.1 698.322L1473.52 696.366C1469.91 695.592 1466.67 694.692 1463.81 693.668L1463.13 695.551ZM1473.09 698.319L1486.84 701.444L1487.28 699.494L1473.53 696.369L1473.09 698.319ZM1486.85 701.446C1494.71 703.152 1501.61 705.422 1507.57 708.247L1508.43 706.44C1502.31 703.537 1495.25 701.223 1487.27 699.492L1486.85 701.446ZM1507.57 708.249C1513.59 711.075 1518.6 714.428 1522.62 718.299L1524.01 716.857C1519.8 712.811 1514.6 709.342 1508.43 706.439L1507.57 708.249ZM1522.62 718.303C1526.69 722.168 1529.76 726.61 1531.84 731.633L1533.69 730.867C1531.5 725.578 1528.27 720.905 1524 716.853L1522.62 718.303ZM1531.84 731.633C1533.92 736.654 1535 742.305 1535.05 748.602L1537.05 748.586C1536.99 742.07 1535.88 736.159 1533.69 730.867L1531.84 731.633ZM1535.05 748.589C1535 758.52 1532.49 766.987 1527.57 774.037L1529.21 775.182C1534.4 767.752 1536.99 758.876 1537.05 748.599L1535.05 748.589ZM1527.57 774.037C1522.65 781.094 1515.55 786.53 1506.22 790.324L1506.97 792.176C1516.6 788.261 1524.03 782.604 1529.21 775.182L1527.57 774.037ZM1506.22 790.324C1496.94 794.117 1485.69 796.031 1472.45 796.031V798.031C1485.88 798.031 1497.39 796.092 1506.97 792.176L1506.22 790.324ZM1472.45 796.031C1459.17 796.031 1447.63 794.04 1437.83 790.088L1437.08 791.943C1447.17 796.012 1458.97 798.031 1472.45 798.031V796.031ZM1437.83 790.088C1428.05 786.145 1420.48 780.172 1415.08 772.175L1413.42 773.294C1419.06 781.651 1426.96 787.865 1437.08 791.943L1437.83 790.088ZM1415.08 772.175C1409.69 764.198 1406.89 754.063 1406.73 741.706L1404.73 741.731C1404.89 754.374 1407.77 764.917 1413.42 773.294L1415.08 772.175ZM1405.73 742.719H1442.77V740.719H1405.73V742.719ZM1441.77 741.779C1442.09 747.08 1443.51 751.568 1446.09 755.189L1447.72 754.029C1445.4 750.775 1444.07 746.67 1443.76 741.658L1441.77 741.779ZM1446.09 755.189C1448.66 758.794 1452.17 761.51 1456.6 763.346L1457.37 761.498C1453.25 759.792 1450.05 757.3 1447.72 754.029L1446.09 755.189ZM1456.61 763.347C1461.07 765.177 1466.2 766.078 1471.98 766.078V764.078C1466.41 764.078 1461.54 763.209 1457.36 761.497L1456.61 763.347ZM1471.98 766.078C1477.28 766.078 1481.83 765.364 1485.63 763.902L1484.91 762.036C1481.41 763.386 1477.11 764.078 1471.98 764.078V766.078ZM1485.62 763.903C1489.45 762.448 1492.45 760.402 1494.57 757.73L1493 756.489C1491.15 758.817 1488.48 760.677 1484.91 762.034L1485.62 763.903ZM1494.57 757.73C1496.68 755.055 1497.77 751.978 1497.83 748.532L1495.83 748.499C1495.78 751.512 1494.84 754.163 1493 756.489L1494.57 757.73ZM1497.83 748.498C1497.77 745.264 1496.76 742.458 1494.78 740.132L1493.26 741.431C1494.92 743.375 1495.78 745.725 1495.83 748.533L1497.83 748.498ZM1494.78 740.141C1492.82 737.785 1489.85 735.83 1485.96 734.231L1485.2 736.081C1488.91 737.607 1491.56 739.402 1493.25 741.421L1494.78 740.141ZM1485.97 734.238C1482.15 732.592 1477.3 731.091 1471.43 729.729L1470.98 731.677C1476.78 733.024 1481.51 734.492 1485.18 736.075L1485.97 734.238ZM1471.43 729.729L1454.71 725.823L1454.26 727.771L1470.98 731.677L1471.43 729.729ZM1454.71 725.822C1440.96 722.671 1430.22 717.6 1422.41 710.659L1421.09 712.154C1429.21 719.38 1440.3 724.569 1454.26 727.772L1454.71 725.822ZM1422.42 710.661C1414.69 703.743 1410.82 694.397 1410.87 682.504L1408.88 682.496C1408.82 694.874 1412.87 704.798 1421.08 712.151L1422.42 710.661ZM1410.87 682.495C1410.82 672.793 1413.42 664.331 1418.66 657.069L1417.03 655.9C1411.53 663.533 1408.82 672.415 1408.88 682.505L1410.87 682.495ZM1418.66 657.069C1423.9 649.784 1431.17 644.082 1440.51 639.978L1439.71 638.147C1430.09 642.376 1422.51 648.289 1417.03 655.9L1418.66 657.069ZM1440.51 639.978C1449.84 635.876 1460.51 633.812 1472.53 633.812V631.812C1460.28 631.812 1449.33 633.916 1439.71 638.147L1440.51 639.978ZM1472.53 633.812C1484.82 633.812 1495.42 635.903 1504.38 640.048L1505.22 638.233C1495.94 633.941 1485.04 631.812 1472.53 631.812V633.812ZM1504.38 640.051C1513.4 644.149 1520.36 649.894 1525.29 657.275L1526.96 656.163C1521.79 648.44 1514.53 642.465 1505.21 638.23L1504.38 640.051ZM1525.29 657.275C1530.23 664.65 1532.76 673.206 1532.86 682.979L1534.86 682.958C1534.75 672.835 1532.13 663.892 1526.96 656.163L1525.29 657.275ZM1533.86 681.969H1496.83V683.969H1533.86V681.969ZM1555.58 795H1554.58V796H1555.58V795ZM1555.58 635V634H1554.58V635H1555.58ZM1594.25 635H1595.25V634H1594.25V635ZM1594.25 763.594H1593.25V764.594H1594.25V763.594ZM1660.81 763.594H1661.81V762.594H1660.81V763.594ZM1660.81 795V796H1661.81V795H1660.81ZM1556.58 795V635H1554.58V795H1556.58ZM1555.58 636H1594.25V634H1555.58V636ZM1593.25 635V763.594H1595.25V635H1593.25ZM1594.25 764.594H1660.81V762.594H1594.25V764.594ZM1659.81 763.594V795H1661.81V763.594H1659.81ZM1660.81 794H1555.58V796H1660.81V794ZM1728.1 795H1727.1V796H1728.1V795ZM1728.1 635V634H1727.1V635H1728.1ZM1839.66 635H1840.66V634H1839.66V635ZM1839.66 666.406V667.406H1840.66V666.406H1839.66ZM1766.77 666.406V665.406H1765.77V666.406H1766.77ZM1766.77 699.219H1765.77V700.219H1766.77V699.219ZM1833.96 699.219H1834.96V698.219H1833.96V699.219ZM1833.96 730.703V731.703H1834.96V730.703H1833.96ZM1766.77 730.703V729.703H1765.77V730.703H1766.77ZM1766.77 763.594H1765.77V764.594H1766.77V763.594ZM1839.66 763.594H1840.66V762.594H1839.66V763.594ZM1839.66 795V796H1840.66V795H1839.66ZM1729.1 795V635H1727.1V795H1729.1ZM1728.1 636H1839.66V634H1728.1V636ZM1838.66 635V666.406H1840.66V635H1838.66ZM1839.66 665.406H1766.77V667.406H1839.66V665.406ZM1765.77 666.406V699.219H1767.77V666.406H1765.77ZM1766.77 700.219H1833.96V698.219H1766.77V700.219ZM1832.96 699.219V730.703H1834.96V699.219H1832.96ZM1833.96 729.703H1766.77V731.703H1833.96V729.703ZM1765.77 730.703V763.594H1767.77V730.703H1765.77ZM1766.77 764.594H1839.66V762.594H1766.77V764.594ZM1838.66 763.594V795H1840.66V763.594H1838.66ZM1839.66 794H1728.1V796H1839.66V794ZM2000.05 635H2001.05V634H2000.05V635ZM2000.05 795V796H2001.05V795H2000.05ZM1967.24 795L1966.42 795.568L1966.71 796H1967.24V795ZM1903.57 702.656L1904.39 702.089L1904.09 701.656H1903.57V702.656ZM1902.55 702.656V701.656H1901.55V702.656H1902.55ZM1902.55 795V796H1903.55V795H1902.55ZM1863.88 795H1862.88V796H1863.88V795ZM1863.88 635V634H1862.88V635H1863.88ZM1897.16 635L1897.99 634.436L1897.69 634H1897.16V635ZM1960.13 727.188L1959.3 727.752L1959.6 728.188H1960.13V727.188ZM1961.46 727.188V728.188H1962.46V727.188H1961.46ZM1961.46 635V634H1960.46V635H1961.46ZM1999.05 635V795H2001.05V635H1999.05ZM2000.05 794H1967.24V796H2000.05V794ZM1968.06 794.432L1904.39 702.089L1902.74 703.224L1966.42 795.568L1968.06 794.432ZM1903.57 701.656H1902.55V703.656H1903.57V701.656ZM1901.55 702.656V795H1903.55V702.656H1901.55ZM1902.55 794H1863.88V796H1902.55V794ZM1864.88 795V635H1862.88V795H1864.88ZM1863.88 636H1897.16V634H1863.88V636ZM1896.33 635.564L1959.3 727.752L1960.95 726.623L1897.99 634.436L1896.33 635.564ZM1960.13 728.188H1961.46V726.188H1960.13V728.188ZM1962.46 727.188V635H1960.46V727.188H1962.46ZM1961.46 636H2000.05V634H1961.46V636ZM2169.6 692.969V693.969H2170.7L2170.6 692.871L2169.6 692.969ZM2130.54 692.969L2129.55 693.098L2129.66 693.969H2130.54V692.969ZM2127.34 682.109L2126.44 682.557L2127.34 682.109ZM2120.93 673.828L2121.58 673.071L2120.93 673.828ZM2111.48 668.594L2111.15 669.538L2111.16 669.541L2111.16 669.544L2111.48 668.594ZM2079.45 672.422L2078.89 671.593L2078.88 671.596L2079.45 672.422ZM2066.55 688.906L2065.63 688.519L2065.63 688.524L2066.55 688.906ZM2066.63 741.719L2065.71 742.106L2065.71 742.114L2066.63 741.719ZM2079.52 757.891L2078.97 758.725L2078.98 758.731L2079.52 757.891ZM2110.93 761.641L2110.63 760.685L2110.63 760.686L2110.93 761.641ZM2120.23 756.875L2120.84 757.662L2120.85 757.66L2120.23 756.875ZM2126.87 749.141L2126 748.641L2126 748.646L2126.87 749.141ZM2130.54 738.75L2130.55 737.75L2129.7 737.745L2129.55 738.577L2130.54 738.75ZM2169.6 738.984L2170.6 739.08L2170.7 737.991L2169.61 737.984L2169.6 738.984ZM2163.43 759.922L2162.54 759.475L2162.53 759.48L2163.43 759.922ZM2149.45 778.75L2150.13 779.476L2150.14 779.473L2149.45 778.75ZM2127.73 792.188L2127.36 791.256L2127.36 791.257L2127.73 792.188ZM2059.6 787.656L2059.11 788.528L2059.12 788.531L2059.6 787.656ZM2032.57 759.688L2033.45 759.212L2032.57 759.688ZM2032.73 670.234L2031.85 669.753L2032.73 670.234ZM2125.38 636.875L2125.07 637.825L2125.08 637.827L2125.38 636.875ZM2147.1 648.594L2146.47 649.365L2146.47 649.368L2147.1 648.594ZM2169.6 691.969H2130.54V693.969H2169.6V691.969ZM2131.53 692.84C2131 688.732 2129.9 685.003 2128.23 681.662L2126.44 682.557C2128 685.675 2129.04 689.185 2129.55 693.098L2131.53 692.84ZM2128.23 681.662C2126.56 678.318 2124.34 675.452 2121.58 673.071L2120.28 674.585C2122.83 676.788 2124.88 679.442 2126.44 682.557L2128.23 681.662ZM2121.58 673.071C2118.82 670.685 2115.55 668.879 2111.79 667.644L2111.16 669.544C2114.7 670.704 2117.73 672.388 2120.28 674.585L2121.58 673.071ZM2111.81 667.649C2108.09 666.357 2103.99 665.719 2099.52 665.719V667.719C2103.8 667.719 2107.67 668.33 2111.15 669.538L2111.81 667.649ZM2099.52 665.719C2091.59 665.719 2084.7 667.664 2078.89 671.593L2080.01 673.25C2085.44 669.575 2091.93 667.719 2099.52 667.719V665.719ZM2078.88 671.596C2073.13 675.523 2068.72 681.182 2065.63 688.519L2067.48 689.294C2070.43 682.256 2074.62 676.925 2080.01 673.248L2078.88 671.596ZM2065.63 688.524C2062.6 695.864 2061.1 704.7 2061.1 715H2063.1C2063.1 704.884 2064.57 696.323 2067.48 689.288L2065.63 688.524ZM2061.1 715C2061.1 725.713 2062.62 734.76 2065.71 742.106L2067.55 741.331C2064.6 734.302 2063.1 725.537 2063.1 715H2061.1ZM2065.71 742.114C2068.85 749.397 2073.26 754.954 2078.97 758.725L2080.07 757.056C2074.74 753.535 2070.56 748.311 2067.55 741.323L2065.71 742.114ZM2078.98 758.731C2084.74 762.444 2091.52 764.281 2099.29 764.281V762.281C2091.85 762.281 2085.45 760.525 2080.07 757.05L2078.98 758.731ZM2099.29 764.281C2103.64 764.281 2107.63 763.724 2111.23 762.595L2110.63 760.686C2107.25 761.745 2103.48 762.281 2099.29 762.281V764.281ZM2111.22 762.596C2114.87 761.47 2118.08 759.828 2120.84 757.662L2119.61 756.088C2117.06 758.089 2114.07 759.624 2110.63 760.685L2111.22 762.596ZM2120.85 757.66C2123.66 755.444 2125.95 752.767 2127.74 749.635L2126 748.646C2124.34 751.556 2122.21 754.035 2119.61 756.09L2120.85 757.66ZM2127.73 749.64C2129.57 746.456 2130.83 742.88 2131.52 738.923L2129.55 738.577C2128.9 742.328 2127.71 745.679 2126 748.641L2127.73 749.64ZM2130.53 739.75L2169.6 739.984L2169.61 737.984L2130.55 737.75L2130.53 739.75ZM2168.61 738.889C2167.94 745.84 2165.92 752.701 2162.54 759.475L2164.32 760.369C2167.81 753.393 2169.91 746.295 2170.6 739.08L2168.61 738.889ZM2162.53 759.48C2159.2 766.243 2154.61 772.425 2148.75 778.027L2150.14 779.473C2156.15 773.721 2160.89 767.351 2164.33 760.364L2162.53 759.48ZM2148.76 778.024C2142.92 783.55 2135.8 787.964 2127.36 791.256L2128.09 793.119C2136.74 789.744 2144.09 785.2 2150.13 779.476L2148.76 778.024ZM2127.36 791.257C2119.01 794.536 2109.4 796.188 2098.51 796.188V798.188C2109.6 798.188 2119.46 796.506 2128.09 793.118L2127.36 791.257ZM2098.51 796.188C2084.18 796.188 2071.38 793.045 2060.09 786.782L2059.12 788.531C2070.74 794.976 2083.88 798.188 2098.51 798.188V796.188ZM2060.09 786.784C2048.86 780.477 2039.98 771.296 2033.45 759.212L2031.69 760.163C2038.39 772.558 2047.53 782.023 2059.11 788.528L2060.09 786.784ZM2033.45 759.212C2026.93 747.152 2023.65 732.429 2023.65 715H2021.65C2021.65 732.676 2024.98 747.744 2031.69 760.163L2033.45 759.212ZM2023.65 715C2023.65 697.521 2026.98 682.774 2033.6 670.716L2031.85 669.753C2025.03 682.174 2021.65 697.271 2021.65 715H2023.65ZM2033.6 670.716C2040.24 658.63 2049.19 649.475 2060.48 643.218L2059.51 641.469C2047.87 647.921 2038.65 657.359 2031.85 669.753L2033.6 670.716ZM2060.48 643.218C2071.77 636.953 2084.44 633.812 2098.51 633.812V631.812C2084.13 631.812 2071.13 635.026 2059.51 641.469L2060.48 643.218ZM2098.51 633.812C2108.1 633.812 2116.95 635.153 2125.07 637.825L2125.7 635.925C2117.35 633.18 2108.29 631.812 2098.51 631.812V633.812ZM2125.08 637.827C2133.19 640.447 2140.32 644.294 2146.47 649.365L2147.74 647.822C2141.38 642.581 2134.03 638.616 2125.69 635.923L2125.08 637.827ZM2146.47 649.368C2152.61 654.384 2157.6 660.553 2161.45 667.886L2163.22 666.957C2159.26 659.395 2154.09 653.012 2147.73 647.819L2146.47 649.368ZM2161.45 667.886C2165.29 675.205 2167.68 683.593 2168.61 693.066L2170.6 692.871C2169.65 683.178 2167.2 674.535 2163.22 666.957L2161.45 667.886ZM2191.73 795H2190.73V796H2191.73V795ZM2191.73 635V634H2190.73V635H2191.73ZM2288.84 641.484L2288.39 642.38L2288.4 642.383L2288.84 641.484ZM2309.07 659.922L2308.21 660.431L2308.21 660.433L2309.07 659.922ZM2308.92 716.562L2309.76 717.095L2309.77 717.092L2308.92 716.562ZM2288.29 734.219L2288.7 735.131L2288.71 735.129L2288.29 734.219ZM2214.86 740.234H2213.86V741.234H2214.86V740.234ZM2214.86 709.766V708.766H2213.86V709.766H2214.86ZM2264.07 707.5L2264.43 708.433L2264.44 708.43L2264.07 707.5ZM2273.06 700.469L2273.9 701.014L2273.9 701.007L2273.06 700.469ZM2273.06 676.016L2272.21 676.542L2272.21 676.548L2273.06 676.016ZM2264.07 668.672L2263.69 669.594L2263.7 669.598L2264.07 668.672ZM2230.4 666.172V665.172H2229.4V666.172H2230.4ZM2230.4 795V796H2231.4V795H2230.4ZM2281.81 721.875L2282.69 721.397L2282.4 720.875H2281.81V721.875ZM2321.65 795V796H2323.34L2322.53 794.522L2321.65 795ZM2279.46 795L2278.58 795.471L2278.87 796H2279.46V795ZM2240.4 721.875V720.875H2238.73L2239.52 722.346L2240.4 721.875ZM2192.73 795V635H2190.73V795H2192.73ZM2191.73 636H2257.82V634H2191.73V636ZM2257.82 636C2269.68 636 2279.86 638.14 2288.39 642.38L2289.28 640.589C2280.42 636.183 2269.92 634 2257.82 634V636ZM2288.4 642.383C2296.98 646.572 2303.58 652.586 2308.21 660.431L2309.94 659.413C2305.09 651.216 2298.2 644.938 2289.28 640.586L2288.4 642.383ZM2308.21 660.433C2312.85 668.221 2315.18 677.491 2315.18 688.281H2317.18C2317.18 677.196 2314.78 667.56 2309.93 659.411L2308.21 660.433ZM2315.18 688.281C2315.18 699.228 2312.8 708.462 2308.07 716.033L2309.77 717.092C2314.73 709.142 2317.18 699.522 2317.18 688.281H2315.18ZM2308.07 716.03C2303.34 723.561 2296.62 729.321 2287.88 733.309L2288.71 735.129C2297.78 730.991 2304.81 724.981 2309.76 717.095L2308.07 716.03ZM2287.88 733.307C2279.13 737.247 2268.73 739.234 2256.65 739.234V741.234C2268.95 741.234 2279.64 739.212 2288.7 735.131L2287.88 733.307ZM2256.65 739.234H2214.86V741.234H2256.65V739.234ZM2215.86 740.234V709.766H2213.86V740.234H2215.86ZM2214.86 710.766H2249.46V708.766H2214.86V710.766ZM2249.46 710.766C2255.38 710.766 2260.38 710.001 2264.43 708.433L2263.71 706.567C2259.96 708.019 2255.22 708.766 2249.46 708.766V710.766ZM2264.44 708.43C2268.56 706.803 2271.74 704.337 2273.9 701.014L2272.22 699.924C2270.32 702.851 2267.5 705.072 2263.71 706.57L2264.44 708.43ZM2273.9 701.007C2276.06 697.626 2277.11 693.362 2277.11 688.281H2275.11C2275.11 693.097 2274.12 696.957 2272.22 699.93L2273.9 701.007ZM2277.11 688.281C2277.11 683.2 2276.06 678.913 2273.91 675.483L2272.21 676.548C2274.12 679.577 2275.11 683.467 2275.11 688.281H2277.11ZM2273.91 675.489C2271.75 672.009 2268.58 669.431 2264.45 667.746L2263.7 669.598C2267.48 671.142 2270.3 673.46 2272.21 676.542L2273.91 675.489ZM2264.46 667.75C2260.35 666.017 2255.34 665.172 2249.46 665.172V667.172C2255.16 667.172 2259.89 667.993 2263.69 669.594L2264.46 667.75ZM2249.46 665.172H2230.4V667.172H2249.46V665.172ZM2229.4 666.172V795H2231.4V666.172H2229.4ZM2230.4 794H2191.73V796H2230.4V794ZM2280.93 722.353L2320.77 795.478L2322.53 794.522L2282.69 721.397L2280.93 722.353ZM2321.65 794H2279.46V796H2321.65V794ZM2280.35 794.529L2241.28 721.404L2239.52 722.346L2278.58 795.471L2280.35 794.529ZM2240.4 722.875H2281.81V720.875H2240.4V722.875ZM2322.34 635V634H2320.65L2321.46 635.481L2322.34 635ZM2365.54 635L2366.43 634.549L2366.15 634H2365.54V635ZM2399.37 701.953L2398.47 702.404L2398.75 702.953H2399.37V701.953ZM2400.77 701.953V702.953H2401.39L2401.67 702.404L2400.77 701.953ZM2434.6 635V634H2433.99L2433.71 634.549L2434.6 635ZM2477.8 635L2478.68 635.481L2479.49 634H2477.8V635ZM2419.29 741.562L2418.41 741.081L2418.29 741.306V741.562H2419.29ZM2419.29 795V796H2420.29V795H2419.29ZM2380.85 795H2379.85V796H2380.85V795ZM2380.85 741.562H2381.85V741.306L2381.73 741.081L2380.85 741.562ZM2322.34 636H2365.54V634H2322.34V636ZM2364.65 635.451L2398.47 702.404L2400.26 701.502L2366.43 634.549L2364.65 635.451ZM2399.37 702.953H2400.77V700.953H2399.37V702.953ZM2401.67 702.404L2435.49 635.451L2433.71 634.549L2399.88 701.502L2401.67 702.404ZM2434.6 636H2477.8V634H2434.6V636ZM2476.93 634.519L2418.41 741.081L2420.17 742.044L2478.68 635.481L2476.93 634.519ZM2418.29 741.562V795H2420.29V741.562H2418.29ZM2419.29 794H2380.85V796H2419.29V794ZM2381.85 795V741.562H2379.85V795H2381.85ZM2381.73 741.081L2323.21 634.519L2321.46 635.481L2379.97 742.044L2381.73 741.081ZM2494.02 795H2493.02V796H2494.02V795ZM2494.02 635V634H2493.02V635H2494.02ZM2591.12 642.031L2590.65 642.912L2590.66 642.915L2591.12 642.031ZM2611.36 661.484L2610.49 661.979L2610.49 661.981L2611.36 661.484ZM2611.2 719.375L2610.34 718.87L2610.34 718.872L2611.2 719.375ZM2590.66 738.516L2591.11 739.407L2590.66 738.516ZM2518.16 745.312H2517.16V746.312H2518.16V745.312ZM2518.16 714.844V713.844H2517.16V714.844H2518.16ZM2566.36 711.797L2565.9 710.907L2565.9 710.91L2566.36 711.797ZM2575.34 703.281L2576.22 703.768L2576.22 703.763L2575.34 703.281ZM2575.34 677.578L2574.47 678.065L2574.47 678.07L2575.34 677.578ZM2566.36 669.141L2565.91 670.035L2566.36 669.141ZM2532.69 666.172V665.172H2531.69V666.172H2532.69ZM2532.69 795V796H2533.69V795H2532.69ZM2495.02 795V635H2493.02V795H2495.02ZM2494.02 636H2560.11V634H2494.02V636ZM2560.11 636C2571.96 636 2582.13 638.318 2590.65 642.912L2591.6 641.151C2582.73 636.37 2572.22 634 2560.11 634V636ZM2590.66 642.915C2599.24 647.464 2605.85 653.816 2610.49 661.979L2612.23 660.99C2607.39 652.486 2600.51 645.869 2591.59 641.148L2590.66 642.915ZM2610.49 661.981C2615.13 670.089 2617.47 679.549 2617.47 690.391H2619.47C2619.47 679.254 2617.07 669.442 2612.23 660.988L2610.49 661.981ZM2617.47 690.391C2617.47 701.282 2615.08 710.764 2610.34 718.87L2612.07 719.88C2617.01 711.424 2619.47 701.583 2619.47 690.391H2617.47ZM2610.34 718.872C2605.65 726.926 2598.95 733.176 2590.2 737.624L2591.11 739.407C2600.18 734.793 2607.17 728.282 2612.07 719.878L2610.34 718.872ZM2590.2 737.624C2581.47 742.07 2571.05 744.312 2558.94 744.312V746.312C2571.3 746.312 2582.03 744.024 2591.11 739.407L2590.2 737.624ZM2558.94 744.312H2518.16V746.312H2558.94V744.312ZM2519.16 745.312V714.844H2517.16V745.312H2519.16ZM2518.16 715.844H2551.75V713.844H2518.16V715.844ZM2551.75 715.844C2557.69 715.844 2562.73 714.81 2566.82 712.684L2565.9 710.91C2562.17 712.847 2557.47 713.844 2551.75 713.844V715.844ZM2566.82 712.687C2570.94 710.571 2574.08 707.598 2576.22 703.768L2574.47 702.795C2572.54 706.256 2569.7 708.96 2565.9 710.907L2566.82 712.687ZM2576.22 703.763C2578.34 699.895 2579.39 695.428 2579.39 690.391H2577.39C2577.39 695.145 2576.41 699.272 2574.47 702.8L2576.22 703.763ZM2579.39 690.391C2579.39 685.304 2578.35 680.857 2576.21 677.086L2574.47 678.07C2576.4 681.487 2577.39 685.581 2577.39 690.391H2579.39ZM2576.22 677.091C2574.08 673.259 2570.93 670.31 2566.81 668.246L2565.91 670.035C2569.7 671.93 2572.54 674.606 2574.47 678.065L2576.22 677.091ZM2566.81 668.246C2562.67 666.18 2557.64 665.172 2551.75 665.172V667.172C2557.42 667.172 2562.13 668.143 2565.91 670.035L2566.81 668.246ZM2551.75 665.172H2532.69V667.172H2551.75V665.172ZM2531.69 666.172V795H2533.69V666.172H2531.69ZM2532.69 794H2494.02V796H2532.69V794ZM2632.3 666.406H2631.3V667.406H2632.3V666.406ZM2632.3 635V634H2631.3V635H2632.3ZM2767.53 635H2768.53V634H2767.53V635ZM2767.53 666.406V667.406H2768.53V666.406H2767.53ZM2719.02 666.406V665.406H2718.02V666.406H2719.02ZM2719.02 795V796H2720.02V795H2719.02ZM2680.89 795H2679.89V796H2680.89V795ZM2680.89 666.406H2681.89V665.406H2680.89V666.406ZM2633.3 666.406V635H2631.3V666.406H2633.3ZM2632.3 636H2767.53V634H2632.3V636ZM2766.53 635V666.406H2768.53V635H2766.53ZM2767.53 665.406H2719.02V667.406H2767.53V665.406ZM2718.02 666.406V795H2720.02V666.406H2718.02ZM2719.02 794H2680.89V796H2719.02V794ZM2681.89 795V666.406H2679.89V795H2681.89ZM2680.89 665.406H2632.3V667.406H2680.89V665.406ZM2825.09 635H2826.09V634H2825.09V635ZM2825.09 795V796H2826.09V795H2825.09ZM2786.42 795H2785.42V796H2786.42V795ZM2786.42 635V634H2785.42V635H2786.42ZM2824.09 635V795H2826.09V635H2824.09ZM2825.09 794H2786.42V796H2825.09V794ZM2787.42 795V635H2785.42V795H2787.42ZM2786.42 636H2825.09V634H2786.42V636ZM2990.23 759.766L2989.35 759.282L2990.23 759.766ZM2962.73 787.656L2962.24 786.78L2962.24 786.781L2962.73 787.656ZM2885.15 787.578L2885.63 786.704L2885.15 787.578ZM2857.73 759.688L2856.85 760.169L2856.85 760.173L2857.73 759.688ZM2857.73 670.234L2856.85 669.75L2856.85 669.753L2857.73 670.234ZM2885.15 642.344L2885.63 643.219L2885.15 642.344ZM2962.73 642.344L2962.24 643.219L2962.24 643.22L2962.73 642.344ZM2990.23 670.234L2989.35 670.718L2990.23 670.234ZM2956.4 688.594L2955.47 688.97L2955.47 688.976L2956.4 688.594ZM2943.74 672.266L2943.18 673.094L2943.19 673.096L2943.74 672.266ZM2904.21 672.266L2904.77 673.096L2904.21 672.266ZM2891.48 688.594L2890.55 688.212L2890.55 688.218L2891.48 688.594ZM2891.48 741.406L2890.55 741.782L2890.55 741.788L2891.48 741.406ZM2904.21 757.734L2904.77 756.904L2904.21 757.734ZM2943.74 757.734L2943.19 756.904L2943.18 756.906L2943.74 757.734ZM2956.4 741.406L2955.47 741.024L2955.47 741.03L2956.4 741.406ZM2999.38 715C2999.38 732.478 2996.02 747.224 2989.35 759.282L2991.1 760.25C2997.97 747.828 3001.38 732.73 3001.38 715H2999.38ZM2989.35 759.282C2982.67 771.366 2973.63 780.522 2962.24 786.78L2963.21 788.533C2974.95 782.082 2984.25 772.644 2991.1 760.25L2989.35 759.282ZM2962.24 786.781C2950.89 793.046 2938.15 796.188 2923.98 796.188V798.188C2938.45 798.188 2951.54 794.975 2963.21 788.532L2962.24 786.781ZM2923.98 796.188C2909.76 796.188 2896.98 793.02 2885.63 786.704L2884.66 788.452C2896.33 794.948 2909.45 798.188 2923.98 798.188V796.188ZM2885.63 786.704C2874.3 780.394 2865.29 771.236 2858.6 759.202L2856.85 760.173C2863.71 772.514 2872.98 781.95 2884.66 788.452L2885.63 786.704ZM2858.6 759.206C2851.98 747.147 2848.65 732.426 2848.65 715H2846.65C2846.65 732.678 2850.03 747.748 2856.85 760.169L2858.6 759.206ZM2848.65 715C2848.65 697.521 2851.98 682.774 2858.6 670.716L2856.85 669.753C2850.03 682.174 2846.65 697.271 2846.65 715H2848.65ZM2858.6 670.718C2865.29 658.633 2874.3 649.477 2885.63 643.219L2884.67 641.468C2872.98 647.919 2863.71 657.357 2856.85 669.75L2858.6 670.718ZM2885.63 643.219C2896.98 636.954 2909.75 633.812 2923.98 633.812V631.812C2909.45 631.812 2896.34 635.025 2884.67 641.468L2885.63 643.219ZM2923.98 633.812C2938.15 633.812 2950.89 636.954 2962.24 643.219L2963.21 641.468C2951.54 635.025 2938.45 631.812 2923.98 631.812V633.812ZM2962.24 643.22C2973.63 649.478 2982.67 658.634 2989.35 670.718L2991.1 669.75C2984.25 657.356 2974.95 647.918 2963.21 641.467L2962.24 643.22ZM2989.35 670.718C2996.02 682.776 2999.38 697.522 2999.38 715H3001.38C3001.38 697.27 2997.97 682.172 2991.1 669.75L2989.35 670.718ZM2961.85 715C2961.85 704.494 2960.36 695.554 2957.32 688.212L2955.47 688.976C2958.38 696.008 2959.85 704.672 2959.85 715H2961.85ZM2957.33 688.218C2954.35 680.877 2950.01 675.262 2944.3 671.435L2943.19 673.096C2948.51 676.665 2952.62 681.936 2955.47 688.97L2957.33 688.218ZM2944.3 671.437C2938.64 667.61 2931.85 665.719 2923.98 665.719V667.719C2931.52 667.719 2937.91 669.526 2943.18 673.094L2944.3 671.437ZM2923.98 665.719C2916.15 665.719 2909.36 667.61 2903.65 671.435L2904.77 673.096C2910.1 669.525 2916.49 667.719 2923.98 667.719V665.719ZM2903.65 671.435C2897.94 675.26 2893.58 680.874 2890.55 688.212L2892.4 688.976C2895.31 681.939 2899.44 676.667 2904.77 673.096L2903.65 671.435ZM2890.55 688.218C2887.57 695.558 2886.1 704.496 2886.1 715H2888.1C2888.1 704.671 2889.55 696.005 2892.4 688.97L2890.55 688.218ZM2886.1 715C2886.1 725.504 2887.57 734.442 2890.55 741.782L2892.4 741.03C2889.55 733.995 2888.1 725.329 2888.1 715H2886.1ZM2890.55 741.788C2893.58 749.126 2897.94 754.74 2903.65 758.565L2904.77 756.904C2899.44 753.333 2895.31 748.061 2892.4 741.024L2890.55 741.788ZM2903.65 758.565C2909.36 762.389 2916.15 764.281 2923.98 764.281V762.281C2916.49 762.281 2910.1 760.475 2904.77 756.904L2903.65 758.565ZM2923.98 764.281C2931.85 764.281 2938.64 762.39 2944.3 758.563L2943.18 756.906C2937.91 760.474 2931.52 762.281 2923.98 762.281V764.281ZM2944.3 758.565C2950.01 754.738 2954.35 749.123 2957.33 741.782L2955.47 741.03C2952.62 748.064 2948.51 753.335 2943.19 756.904L2944.3 758.565ZM2957.32 741.788C2960.36 734.446 2961.85 725.506 2961.85 715H2959.85C2959.85 725.328 2958.38 733.992 2955.47 741.024L2957.32 741.788ZM3159.13 635H3160.13V634H3159.13V635ZM3159.13 795V796H3160.13V795H3159.13ZM3126.32 795L3125.5 795.568L3125.8 796H3126.32V795ZM3062.65 702.656L3063.47 702.089L3063.17 701.656H3062.65V702.656ZM3061.63 702.656V701.656H3060.63V702.656H3061.63ZM3061.63 795V796H3062.63V795H3061.63ZM3022.96 795H3021.96V796H3022.96V795ZM3022.96 635V634H3021.96V635H3022.96ZM3056.24 635L3057.07 634.436L3056.77 634H3056.24V635ZM3119.21 727.188L3118.39 727.752L3118.68 728.188H3119.21V727.188ZM3120.54 727.188V728.188H3121.54V727.188H3120.54ZM3120.54 635V634H3119.54V635H3120.54ZM3158.13 635V795H3160.13V635H3158.13ZM3159.13 794H3126.32V796H3159.13V794ZM3127.14 794.432L3063.47 702.089L3061.83 703.224L3125.5 795.568L3127.14 794.432ZM3062.65 701.656H3061.63V703.656H3062.65V701.656ZM3060.63 702.656V795H3062.63V702.656H3060.63ZM3061.63 794H3022.96V796H3061.63V794ZM3023.96 795V635H3021.96V795H3023.96ZM3022.96 636H3056.24V634H3022.96V636ZM3055.42 635.564L3118.39 727.752L3120.04 726.623L3057.07 634.436L3055.42 635.564ZM3119.21 728.188H3120.54V726.188H3119.21V728.188ZM3121.54 727.188V635H3119.54V727.188H3121.54ZM3120.54 636H3159.13V634H3120.54V636Z" fill="#222222" mask="url(#path-13-outside-1_0_1)"/>
</g>
<defs>
<clipPath id="clip0_0_1">
<rect width="3968" height="1116" fill="white"/>
</clipPath>
</defs>
</svg>
